#N canvas 0 0 1366 685 16;
#X obj 491 226 metro;
#X obj 394 255 bng 20 250 50 0 empty empty empty 17 7 0 10 -262144
-1 -1;
#X obj 485 164 tgl 20 0 empty empty empty 17 7 0 10 -262144 -1 -1 0
1;
#X obj 540 11 loadbang;
#X obj 271 232 loadbang;
#X obj 491 266 bng 20 250 50 0 empty empty empty 17 7 0 10 -262144
-1 -1;
#X obj 521 368 + 1;
#X floatatom 444 378 5 0 0 0 - - -;
#X obj 444 327 int 1;
#X floatatom 538 192 5 0 0 0 - - -;
#X obj 394 214 sel 0;
#N canvas 0 0 1364 676 numero1 1;
#X floatatom 149 123 5 0 0 0 - - -;
#X floatatom 72 204 5 0 0 0 - - -;
#X obj 149 41 inlet;
#X obj 146 258 makenote 60 500;
#X obj 146 299 noteout;
#X msg 146 224 42;
#X obj 149 87 % 4;
#X obj 148 175 sel 0;
#X connect 0 0 7 0;
#X connect 2 0 6 0;
#X connect 3 0 4 0;
#X connect 3 1 4 1;
#X connect 5 0 3 0;
#X connect 6 0 0 0;
#X connect 7 0 5 0;
#X connect 7 0 1 0;
#X restore 59 772 pd numero1;
#X obj 444 421 % 32;
#X msg 394 284 -1;
#X obj 76 707 spigot;
#X obj 131 673 tgl 20 0 empty empty empty 17 7 0 10 -262144 -1 -1 0
1;
#X obj 538 50 vsl 15 128 0 300 0 0 empty empty empty 0 -9 0 10 -262144
-1 -1 8500 1;
#X floatatom 10 737 5 0 0 0 - - -;
#X floatatom 195 454 5 0 0 0 - - -;
#X obj 214 620 key;
#X obj 261 710 spigot;
#X obj 316 676 tgl 20 0 empty empty empty 17 7 0 10 -262144 -1 -1 0
1;
#X floatatom 195 740 5 0 0 0 - - -;
#X floatatom 380 457 5 0 0 0 - - -;
#X obj 399 623 key;
#X obj 453 711 spigot;
#X obj 508 677 tgl 20 0 empty empty empty 17 7 0 10 -262144 -1 -1 0
1;
#X floatatom 387 741 5 0 0 0 - - -;
#X floatatom 572 458 5 0 0 0 - - -;
#X obj 591 624 key;
#X obj 648 711 spigot;
#X obj 703 677 tgl 20 0 empty empty empty 17 7 0 10 -262144 -1 -1 0
1;
#X floatatom 582 741 5 0 0 0 - - -;
#X floatatom 767 458 5 0 0 0 - - -;
#X obj 786 624 key;
#X obj 833 715 spigot;
#X obj 888 681 tgl 20 0 empty empty empty 17 7 0 10 -262144 -1 -1 0
1;
#X floatatom 767 745 5 0 0 0 - - -;
#X floatatom 952 462 5 0 0 0 - - -;
#X obj 971 628 key;
#N canvas 0 121 1364 676 numero2 0;
#X obj 101 462 noteout;
#X floatatom 6 98 5 0 0 0 - - -;
#X obj 232 -41 inlet;
#X obj 233 10 moses;
#X obj 186 88 moses;
#X obj 331 33 moses;
#X floatatom 315 -12 5 0 0 0 - - -;
#X floatatom 245 71 5 0 0 0 - - -;
#X floatatom 405 11 5 0 0 0 - - -;
#X obj 289 475 noteout;
#X floatatom 279 172 5 0 0 0 - - -;
#X obj 514 343 noteout;
#X floatatom 470 91 5 0 0 0 - - -;
#X obj 778 389 noteout;
#X floatatom 736 107 5 0 0 0 - - -;
#X obj 89 309 t b b b;
#X obj 277 322 t b b b;
#X obj 446 215 t b b b;
#X obj 709 258 t b b b;
#X msg 96 363 78;
#X msg 150 358 81;
#X msg 207 358 85;
#X msg 284 376 74;
#X msg 340 374 78;
#X msg 394 374 81;
#X msg 452 267 76;
#X msg 499 264 81;
#X msg 550 263 85;
#X msg 688 303 76;
#X msg 749 300 80;
#X msg 827 295 83;
#X msg 378 -35 16;
#X msg 247 37 8;
#X msg 477 -12 24;
#X obj 120 109 % 8;
#X obj 246 132 % 8;
#X obj 331 68 % 8;
#X obj 736 56 % 8;
#X obj 93 287 bng 15 250 50 0 empty empty empty 17 7 0 10 -262144 -1
-1;
#X obj 262 298 bng 15 250 50 0 empty empty empty 17 7 0 10 -262144
-1 -1;
#X obj 417 197 bng 15 250 50 0 empty empty empty 17 7 0 10 -262144
-1 -1;
#X obj 682 238 bng 15 250 50 0 empty empty empty 17 7 0 10 -262144
-1 -1;
#X obj 92 414 makenote 60 2500;
#X obj 282 427 makenote 60 2500;
#X obj 486 308 makenote 60 2500;
#X obj 768 343 makenote 60 2500;
#X obj 20 160 sel 0 3 6;
#X obj 265 235 sel 0 3 6;
#X obj 440 147 sel 0 3 6;
#X obj 695 160 sel 0 3 6;
#X connect 1 0 46 0;
#X connect 2 0 3 0;
#X connect 3 0 4 0;
#X connect 3 1 5 0;
#X connect 4 0 34 0;
#X connect 4 1 35 0;
#X connect 5 0 36 0;
#X connect 5 1 37 0;
#X connect 6 0 3 1;
#X connect 7 0 4 1;
#X connect 8 0 5 1;
#X connect 10 0 47 0;
#X connect 12 0 48 0;
#X connect 14 0 49 0;
#X connect 15 0 19 0;
#X connect 15 1 20 0;
#X connect 15 2 21 0;
#X connect 16 0 22 0;
#X connect 16 1 23 0;
#X connect 16 2 24 0;
#X connect 17 0 25 0;
#X connect 17 1 26 0;
#X connect 17 2 27 0;
#X connect 18 0 28 0;
#X connect 18 1 29 0;
#X connect 18 2 30 0;
#X connect 19 0 42 0;
#X connect 20 0 42 0;
#X connect 21 0 42 0;
#X connect 22 0 43 0;
#X connect 23 0 43 0;
#X connect 24 0 43 0;
#X connect 25 0 44 0;
#X connect 26 0 44 0;
#X connect 27 0 44 0;
#X connect 28 0 45 0;
#X connect 29 0 45 0;
#X connect 30 0 45 0;
#X connect 31 0 6 0;
#X connect 32 0 7 0;
#X connect 33 0 8 0;
#X connect 34 0 1 0;
#X connect 35 0 10 0;
#X connect 36 0 12 0;
#X connect 37 0 14 0;
#X connect 38 0 15 0;
#X connect 39 0 16 0;
#X connect 40 0 17 0;
#X connect 41 0 18 0;
#X connect 42 0 0 0;
#X connect 42 1 0 1;
#X connect 43 0 9 0;
#X connect 43 1 9 1;
#X connect 44 0 11 0;
#X connect 44 1 11 1;
#X connect 45 0 13 0;
#X connect 45 1 13 1;
#X connect 46 0 38 0;
#X connect 46 1 38 0;
#X connect 46 2 38 0;
#X connect 47 0 39 0;
#X connect 47 1 39 0;
#X connect 47 2 39 0;
#X connect 48 0 40 0;
#X connect 48 1 40 0;
#X connect 48 2 40 0;
#X connect 49 0 41 0;
#X connect 49 1 41 0;
#X connect 49 2 41 0;
#X restore 244 775 pd numero2;
#N canvas 0 0 1364 676 numero3 0;
#X obj 15 417 noteout;
#X floatatom 4 126 5 0 0 0 - - -;
#X floatatom -78 325 5 0 0 0 - - -;
#X obj -22 280 t b b;
#X obj 15 372 makenote 60 300;
#X obj 8 39 inlet;
#X obj 9 89 % 2;
#X obj 202 421 noteout;
#X floatatom 109 329 5 0 0 0 - - -;
#X obj 165 284 t b b;
#X obj 202 376 makenote 60 300;
#X text -98 362 Hi-hat;
#X text 386 380 Snare drum;
#X msg 192 330 80;
#X obj -19 243 bng 15 250 50 0 empty empty empty 17 7 0 10 -262144
-1 -1;
#X obj -25 195 sel 0 1;
#X obj 109 254 bng 15 250 50 0 empty empty empty 17 7 0 10 -262144
-1 -1;
#X msg 15 323 90;
#X connect 1 0 15 0;
#X connect 3 0 17 0;
#X connect 3 0 2 0;
#X connect 4 0 0 0;
#X connect 4 1 0 1;
#X connect 5 0 6 0;
#X connect 6 0 1 0;
#X connect 9 0 13 0;
#X connect 9 0 8 0;
#X connect 10 0 7 0;
#X connect 10 1 7 1;
#X connect 13 0 10 0;
#X connect 14 0 3 0;
#X connect 15 0 14 0;
#X connect 15 1 14 0;
#X connect 15 1 16 0;
#X connect 16 0 9 0;
#X connect 17 0 4 0;
#X restore 436 776 pd numero3;
#N canvas 0 0 1364 676 numero4 0;
#X obj 81 507 noteout;
#X floatatom 74 208 5 0 0 0 - - -;
#X obj 72 459 makenote 60 300;
#X obj 216 2 inlet;
#X obj 213 55 moses;
#X obj 166 133 moses;
#X obj 311 78 moses;
#X floatatom 295 33 5 0 0 0 - - -;
#X floatatom 225 117 5 0 0 0 - - -;
#X floatatom 385 56 5 0 0 0 - - -;
#X obj 269 520 noteout;
#X floatatom 263 218 5 0 0 0 - - -;
#X obj 260 472 makenote 60 300;
#X obj 494 388 noteout;
#X floatatom 450 136 5 0 0 0 - - -;
#X obj 466 353 makenote 60 300;
#X obj 758 434 noteout;
#X floatatom 716 152 5 0 0 0 - - -;
#X obj 735 388 makenote 60 300;
#X msg 358 10 16;
#X msg 457 33 24;
#X msg 226 88 8;
#X obj 100 169 % 8;
#X obj 227 175 % 8;
#X obj 311 113 % 8;
#X obj 716 101 % 8;
#X obj 50 279 sel 0 2 4 6 7;
#X obj 222 272 sel 0 2 4 6 7;
#X obj 404 202 sel 0 2 4 6 7;
#X obj 675 222 sel 0 2 4 6 7;
#X obj 47 352 bng 15 250 50 0 empty empty empty 17 7 0 10 -262144 -1
-1;
#X obj 92 352 bng 15 250 50 0 empty empty empty 17 7 0 10 -262144 -1
-1;
#X obj 246 354 bng 15 250 50 0 empty empty empty 17 7 0 10 -262144
-1 -1;
#X obj 290 355 bng 15 250 50 0 empty empty empty 17 7 0 10 -262144
-1 -1;
#X obj 454 260 bng 15 250 50 0 empty empty empty 17 7 0 10 -262144
-1 -1;
#X obj 700 279 bng 15 250 50 0 empty empty empty 17 7 0 10 -262144
-1 -1;
#X obj 745 279 bng 15 250 50 0 empty empty empty 17 7 0 10 -262144
-1 -1;
#X msg 29 399 42;
#X msg 92 398 37;
#X msg 264 421 38;
#X msg 322 417 42;
#X msg 466 305 45;
#X msg 735 349 40;
#X msg 784 345 44;
#X connect 1 0 26 0;
#X connect 2 0 0 0;
#X connect 2 1 0 1;
#X connect 3 0 4 0;
#X connect 4 0 5 0;
#X connect 4 1 6 0;
#X connect 5 0 22 0;
#X connect 5 1 23 0;
#X connect 6 0 24 0;
#X connect 6 1 25 0;
#X connect 7 0 4 1;
#X connect 8 0 5 1;
#X connect 9 0 6 1;
#X connect 11 0 27 0;
#X connect 12 0 10 0;
#X connect 12 1 10 1;
#X connect 14 0 28 0;
#X connect 15 0 13 0;
#X connect 15 1 13 1;
#X connect 17 0 29 0;
#X connect 18 0 16 0;
#X connect 18 1 16 1;
#X connect 19 0 7 0;
#X connect 20 0 9 0;
#X connect 21 0 8 0;
#X connect 22 0 1 0;
#X connect 23 0 11 0;
#X connect 24 0 14 0;
#X connect 25 0 17 0;
#X connect 26 0 30 0;
#X connect 26 1 30 0;
#X connect 26 2 30 0;
#X connect 26 3 30 0;
#X connect 26 4 31 0;
#X connect 27 0 32 0;
#X connect 27 1 32 0;
#X connect 27 2 32 0;
#X connect 27 3 32 0;
#X connect 27 4 33 0;
#X connect 28 0 34 0;
#X connect 28 1 34 0;
#X connect 28 2 34 0;
#X connect 28 3 34 0;
#X connect 28 4 34 0;
#X connect 29 0 35 0;
#X connect 29 1 35 0;
#X connect 29 2 35 0;
#X connect 29 3 35 0;
#X connect 29 4 36 0;
#X connect 30 0 37 0;
#X connect 31 0 38 0;
#X connect 32 0 39 0;
#X connect 33 0 40 0;
#X connect 34 0 41 0;
#X connect 35 0 42 0;
#X connect 36 0 43 0;
#X connect 37 0 2 0;
#X connect 38 0 2 0;
#X connect 39 0 12 0;
#X connect 40 0 12 0;
#X connect 41 0 15 0;
#X connect 42 0 18 0;
#X connect 43 0 18 0;
#X restore 631 776 pd numero4;
#N canvas 1357 0 1370 676 numero5 0;
#X obj 60 556 noteout;
#X floatatom 53 257 5 0 0 0 - - -;
#X obj 51 508 makenote 60 300;
#X obj 230 59 inlet;
#X obj 192 104 moses;
#X obj 145 182 moses;
#X obj 290 127 moses;
#X floatatom 274 82 5 0 0 0 - - -;
#X floatatom 204 166 5 0 0 0 - - -;
#X floatatom 364 105 5 0 0 0 - - -;
#X obj 248 569 noteout;
#X floatatom 242 267 5 0 0 0 - - -;
#X obj 239 521 makenote 60 300;
#X obj 473 437 noteout;
#X floatatom 429 185 5 0 0 0 - - -;
#X obj 445 402 makenote 60 300;
#X obj 737 483 noteout;
#X floatatom 695 201 5 0 0 0 - - -;
#X obj 714 437 makenote 60 300;
#X msg 337 59 16;
#X msg 436 82 24;
#X msg 205 137 8;
#X obj 79 218 % 8;
#X obj 206 224 % 8;
#X obj 290 162 % 8;
#X obj 695 150 % 8;
#X obj 26 401 bng 15 250 50 0 empty empty empty 17 7 0 10 -262144 -1
-1;
#X obj 71 401 bng 15 250 50 0 empty empty empty 17 7 0 10 -262144 -1
-1;
#X obj 225 403 bng 15 250 50 0 empty empty empty 17 7 0 10 -262144
-1 -1;
#X obj 269 404 bng 15 250 50 0 empty empty empty 17 7 0 10 -262144
-1 -1;
#X obj 433 309 bng 15 250 50 0 empty empty empty 17 7 0 10 -262144
-1 -1;
#X obj 679 328 bng 15 250 50 0 empty empty empty 17 7 0 10 -262144
-1 -1;
#X obj 29 328 sel 0 4 6;
#X obj 126 402 bng 15 250 50 0 empty empty empty 17 7 0 10 -262144
-1 -1;
#X msg 8 448 81;
#X msg 71 447 80;
#X msg 129 452 81;
#X obj 201 320 sel 0 4;
#X msg 243 470 83;
#X msg 301 466 83;
#X msg 445 353 81;
#X obj 383 251 sel 0;
#X obj 654 271 sel 0;
#X msg 714 398 80;
#X connect 1 0 32 0;
#X connect 2 0 0 0;
#X connect 2 1 0 1;
#X connect 3 0 4 0;
#X connect 4 0 5 0;
#X connect 4 1 6 0;
#X connect 5 0 22 0;
#X connect 5 1 23 0;
#X connect 6 0 24 0;
#X connect 6 1 25 0;
#X connect 7 0 4 1;
#X connect 8 0 5 1;
#X connect 9 0 6 1;
#X connect 11 0 37 0;
#X connect 12 0 10 0;
#X connect 12 1 10 1;
#X connect 14 0 41 0;
#X connect 15 0 13 0;
#X connect 15 1 13 1;
#X connect 17 0 42 0;
#X connect 18 0 16 0;
#X connect 18 1 16 1;
#X connect 19 0 7 0;
#X connect 20 0 9 0;
#X connect 21 0 8 0;
#X connect 22 0 1 0;
#X connect 23 0 11 0;
#X connect 24 0 14 0;
#X connect 25 0 17 0;
#X connect 26 0 34 0;
#X connect 27 0 35 0;
#X connect 28 0 38 0;
#X connect 29 0 39 0;
#X connect 30 0 40 0;
#X connect 31 0 43 0;
#X connect 32 0 26 0;
#X connect 32 1 27 0;
#X connect 32 2 33 0;
#X connect 33 0 36 0;
#X connect 34 0 2 0;
#X connect 35 0 2 0;
#X connect 36 0 2 0;
#X connect 37 0 28 0;
#X connect 37 1 29 0;
#X connect 38 0 12 0;
#X connect 39 0 12 0;
#X connect 40 0 15 0;
#X connect 41 0 30 0;
#X connect 42 0 31 0;
#X connect 43 0 18 0;
#X restore 816 780 pd numero5;
#X obj 930 656 sel 116;
#X obj 173 648 sel 113;
#X obj 317 508 s n2;
#X obj 265 588 receive n2;
#X obj 132 505 s n1;
#X obj 80 585 receive n1;
#X obj 509 509 s n3;
#X obj 457 589 receive n3;
#X obj 704 509 s n4;
#X obj 652 589 receive n4;
#X obj 889 513 s n5;
#X obj 837 593 receive n5;
#X obj 358 651 sel 119;
#X obj 550 652 sel 101;
#X obj 745 652 sel 114;
#X connect 0 0 5 0;
#X connect 1 0 13 0;
#X connect 2 0 0 0;
#X connect 2 0 10 0;
#X connect 3 0 16 0;
#X connect 4 0 1 0;
#X connect 5 0 8 0;
#X connect 6 0 8 1;
#X connect 7 0 12 0;
#X connect 8 0 6 0;
#X connect 8 0 7 0;
#X connect 9 0 0 1;
#X connect 10 0 1 0;
#X connect 12 0 18 0;
#X connect 12 0 23 0;
#X connect 12 0 28 0;
#X connect 12 0 33 0;
#X connect 12 0 38 0;
#X connect 13 0 8 0;
#X connect 14 0 17 0;
#X connect 14 0 11 0;
#X connect 15 0 14 1;
#X connect 16 0 9 0;
#X connect 18 0 48 0;
#X connect 19 0 45 0;
#X connect 20 0 22 0;
#X connect 20 0 40 0;
#X connect 21 0 20 1;
#X connect 23 0 46 0;
#X connect 24 0 56 0;
#X connect 25 0 27 0;
#X connect 25 0 41 0;
#X connect 26 0 25 1;
#X connect 28 0 50 0;
#X connect 29 0 57 0;
#X connect 30 0 32 0;
#X connect 30 0 42 0;
#X connect 31 0 30 1;
#X connect 33 0 52 0;
#X connect 34 0 58 0;
#X connect 35 0 37 0;
#X connect 35 0 43 0;
#X connect 36 0 35 1;
#X connect 38 0 54 0;
#X connect 39 0 44 0;
#X connect 44 0 36 0;
#X connect 45 0 15 0;
#X connect 47 0 20 0;
#X connect 49 0 14 0;
#X connect 51 0 25 0;
#X connect 53 0 30 0;
#X connect 55 0 35 0;
#X connect 56 0 21 0;
#X connect 57 0 26 0;
#X connect 58 0 31 0;
