#N canvas -8 -8 1366 685 16;
#X obj 491 226 metro;
#X obj 394 255 bng 15 250 50 0 empty empty empty 17 7 0 10 -262144
-1 -1;
#X obj 491 198 tgl 15 0 empty empty empty 17 7 0 10 -262144 -1 -1 0
1;
#X obj 538 121 loadbang;
#X obj 271 232 loadbang;
#X msg 394 284 -1;
#X obj 491 266 bng 15 250 50 0 empty empty empty 17 7 0 10 -262144
-1 -1;
#X obj 521 368 + 1;
#X floatatom 444 378 5 0 0 0 - - -;
#X obj 444 421 % 48;
#X obj 444 327 int 1;
#X floatatom 538 192 5 0 0 0 - - -;
#X obj 394 214 sel 0;
#N canvas -8 -8 1366 685 numero1 0;
#X obj 149 113 % 6;
#X floatatom 149 149 5 0 0 0 - - -;
#X obj 149 182 == 0;
#X floatatom 45 282 5 0 0 0 - - -;
#X obj 122 259 t b b;
#X obj 336 18 key;
#X obj 247 41 sel 113;
#X obj 224 64 tgl 15 0 empty empty empty 17 7 0 10 -262144 -1 -1 127
127;
#X obj 122 224 spigot;
#X obj 149 79 spigot;
#X obj 149 41 inlet;
#X obj 122 332 makenote 60 500;
#X obj 122 373 noteout;
#X msg 122 298 42;
#X connect 0 0 1 0;
#X connect 1 0 2 0;
#X connect 2 0 8 0;
#X connect 2 0 8 1;
#X connect 4 0 13 0;
#X connect 4 0 3 0;
#X connect 5 0 6 0;
#X connect 6 0 7 0;
#X connect 7 0 9 1;
#X connect 8 0 4 0;
#X connect 9 0 0 0;
#X connect 10 0 9 0;
#X connect 11 0 12 0;
#X connect 11 1 12 1;
#X connect 13 0 11 0;
#X restore 217 469 pd numero1;
#N canvas -8 -8 1366 685 numero2 0;
#X obj 235 633 noteout;
#X floatatom 228 334 5 0 0 0 - - -;
#X obj 229 370 == 0;
#X obj 514 60 key;
#X obj 460 121 tgl 15 0 empty empty empty 17 7 0 10 -262144 -1 -1 127
127;
#X obj 230 427 spigot;
#X obj 367 136 spigot;
#X obj 226 585 makenote 60 300;
#X obj 367 81 inlet;
#X obj 514 98 sel 87;
#X obj 367 181 moses;
#X obj 320 259 moses;
#X obj 465 204 moses;
#X floatatom 449 159 5 0 0 0 - - -;
#X msg 512 136 24;
#X floatatom 379 243 5 0 0 0 - - -;
#X floatatom 539 182 5 0 0 0 - - -;
#X msg 404 271 12;
#X msg 611 159 36;
#X obj 423 646 noteout;
#X floatatom 417 344 5 0 0 0 - - -;
#X obj 417 383 == 0;
#X obj 418 440 spigot;
#X obj 414 598 makenote 60 300;
#X obj 648 514 noteout;
#X floatatom 604 262 5 0 0 0 - - -;
#X obj 604 296 == 0;
#X obj 580 343 spigot;
#X obj 620 479 makenote 60 300;
#X obj 912 560 noteout;
#X floatatom 870 278 5 0 0 0 - - -;
#X obj 870 318 == 0;
#X obj 843 382 spigot;
#X obj 889 514 makenote 60 300;
#X obj 254 295 % 4;
#X obj 380 303 % 4;
#X obj 465 239 % 4;
#X obj 870 227 % 4;
#X obj 223 480 t b b b;
#X obj 411 493 t b b b;
#X obj 580 386 t b b b;
#X obj 843 429 t b b b;
#X msg 230 534 78;
#X msg 284 529 81;
#X msg 341 529 85;
#X msg 418 547 74;
#X msg 474 545 78;
#X msg 528 545 81;
#X msg 586 438 76;
#X msg 633 435 81;
#X msg 684 434 85;
#X msg 822 474 76;
#X msg 883 471 80;
#X msg 961 466 83;
#X connect 1 0 2 0;
#X connect 2 0 5 0;
#X connect 2 0 5 1;
#X connect 3 0 9 0;
#X connect 4 0 6 1;
#X connect 5 0 38 0;
#X connect 6 0 10 0;
#X connect 7 0 0 0;
#X connect 7 1 0 1;
#X connect 8 0 6 0;
#X connect 9 0 4 0;
#X connect 10 0 11 0;
#X connect 10 1 12 0;
#X connect 11 0 34 0;
#X connect 11 1 35 0;
#X connect 12 0 36 0;
#X connect 12 1 37 0;
#X connect 13 0 10 1;
#X connect 14 0 13 0;
#X connect 15 0 11 1;
#X connect 16 0 12 1;
#X connect 17 0 15 0;
#X connect 18 0 16 0;
#X connect 20 0 21 0;
#X connect 21 0 22 0;
#X connect 21 0 22 1;
#X connect 22 0 39 0;
#X connect 23 0 19 0;
#X connect 23 1 19 1;
#X connect 25 0 26 0;
#X connect 26 0 27 0;
#X connect 26 0 27 1;
#X connect 27 0 40 0;
#X connect 28 0 24 0;
#X connect 28 1 24 1;
#X connect 30 0 31 0;
#X connect 31 0 32 0;
#X connect 31 0 32 1;
#X connect 32 0 41 0;
#X connect 33 0 29 0;
#X connect 33 1 29 1;
#X connect 34 0 1 0;
#X connect 35 0 20 0;
#X connect 36 0 25 0;
#X connect 37 0 30 0;
#X connect 38 0 42 0;
#X connect 38 1 43 0;
#X connect 38 2 44 0;
#X connect 39 0 45 0;
#X connect 39 1 46 0;
#X connect 39 2 47 0;
#X connect 40 0 48 0;
#X connect 40 1 49 0;
#X connect 40 2 50 0;
#X connect 41 0 51 0;
#X connect 41 1 52 0;
#X connect 41 2 53 0;
#X connect 42 0 7 0;
#X connect 43 0 7 0;
#X connect 44 0 7 0;
#X connect 45 0 23 0;
#X connect 46 0 23 0;
#X connect 47 0 23 0;
#X connect 48 0 28 0;
#X connect 49 0 28 0;
#X connect 50 0 28 0;
#X connect 51 0 33 0;
#X connect 52 0 33 0;
#X connect 53 0 33 0;
#X restore 334 469 pd numero2;
#N canvas -8 -8 1366 685 numero3 0;
#X obj 297 531 noteout;
#X floatatom 291 245 5 0 0 0 - - -;
#X msg 297 440 60;
#X floatatom 204 439 5 0 0 0 - - -;
#X obj 260 394 t b b;
#X obj 417 74 key;
#X obj 378 136 tgl 15 0 empty empty empty 17 7 0 10 -262144 -1 -1 0
127;
#X obj 260 341 spigot;
#X obj 291 151 spigot;
#X obj 297 486 makenote 60 300;
#X obj 291 106 inlet;
#X obj 417 113 sel 69;
#X obj 291 203 % 6;
#X obj 291 284 == 3;
#X connect 1 0 13 0;
#X connect 2 0 9 0;
#X connect 4 0 2 0;
#X connect 4 0 3 0;
#X connect 5 0 11 0;
#X connect 6 0 8 1;
#X connect 7 0 4 0;
#X connect 8 0 12 0;
#X connect 9 0 0 0;
#X connect 9 1 0 1;
#X connect 10 0 8 0;
#X connect 11 0 6 0;
#X connect 12 0 1 0;
#X connect 13 0 7 0;
#X connect 13 0 7 1;
#X restore 450 469 pd numero3;
#N canvas -8 -8 1366 685 numero4 0;
#X obj 245 643 noteout;
#X floatatom 238 344 5 0 0 0 - - -;
#X obj 239 380 == 0;
#X floatatom 140 523 5 0 0 0 - - -;
#X obj 233 490 t b b;
#X obj 524 70 key;
#X obj 470 131 tgl 15 0 empty empty empty 17 7 0 10 -262144 -1 -1 0
127;
#X obj 240 437 spigot;
#X obj 377 146 spigot;
#X obj 236 595 makenote 60 300;
#X obj 377 91 inlet;
#X obj 524 108 sel 87;
#X obj 377 191 moses;
#X obj 330 269 moses;
#X obj 475 214 moses;
#X floatatom 459 169 5 0 0 0 - - -;
#X msg 522 146 24;
#X floatatom 389 253 5 0 0 0 - - -;
#X floatatom 549 192 5 0 0 0 - - -;
#X msg 414 281 12;
#X msg 621 169 36;
#X obj 433 656 noteout;
#X floatatom 427 354 5 0 0 0 - - -;
#X obj 427 393 == 0;
#X floatatom 328 536 5 0 0 0 - - -;
#X obj 421 503 t b b;
#X obj 428 450 spigot;
#X obj 424 608 makenote 60 300;
#X obj 658 524 noteout;
#X floatatom 614 272 5 0 0 0 - - -;
#X obj 614 306 == 0;
#X floatatom 540 444 5 0 0 0 - - -;
#X obj 590 396 t b b;
#X obj 590 353 spigot;
#X obj 630 489 makenote 60 300;
#X obj 922 570 noteout;
#X floatatom 880 288 5 0 0 0 - - -;
#X obj 880 328 == 0;
#X floatatom 805 486 5 0 0 0 - - -;
#X obj 853 439 t b b;
#X obj 853 392 spigot;
#X obj 899 524 makenote 60 300;
#X msg 240 544 20;
#X msg 428 557 40;
#X msg 630 441 50;
#X msg 899 485 80;
#X obj 880 237 % 2;
#X obj 475 249 % 2;
#X obj 390 313 % 2;
#X obj 264 305 % 2;
#X connect 1 0 2 0;
#X connect 2 0 7 0;
#X connect 2 0 7 1;
#X connect 4 0 42 0;
#X connect 4 0 3 0;
#X connect 5 0 11 0;
#X connect 6 0 8 1;
#X connect 7 0 4 0;
#X connect 8 0 12 0;
#X connect 9 0 0 0;
#X connect 9 1 0 1;
#X connect 10 0 8 0;
#X connect 11 0 6 0;
#X connect 12 0 13 0;
#X connect 12 1 14 0;
#X connect 13 0 49 0;
#X connect 13 1 48 0;
#X connect 14 0 47 0;
#X connect 14 1 46 0;
#X connect 15 0 12 1;
#X connect 16 0 15 0;
#X connect 17 0 13 1;
#X connect 18 0 14 1;
#X connect 19 0 17 0;
#X connect 20 0 18 0;
#X connect 22 0 23 0;
#X connect 23 0 26 0;
#X connect 23 0 26 1;
#X connect 25 0 43 0;
#X connect 25 0 24 0;
#X connect 26 0 25 0;
#X connect 27 0 21 0;
#X connect 27 1 21 1;
#X connect 29 0 30 0;
#X connect 30 0 33 0;
#X connect 30 0 33 1;
#X connect 32 0 44 0;
#X connect 32 0 31 0;
#X connect 33 0 32 0;
#X connect 34 0 28 0;
#X connect 34 1 28 1;
#X connect 36 0 37 0;
#X connect 37 0 40 0;
#X connect 37 0 40 1;
#X connect 39 0 45 0;
#X connect 39 0 38 0;
#X connect 40 0 39 0;
#X connect 41 0 35 0;
#X connect 41 1 35 1;
#X connect 42 0 9 0;
#X connect 43 0 27 0;
#X connect 44 0 34 0;
#X connect 45 0 41 0;
#X connect 46 0 36 0;
#X connect 47 0 29 0;
#X connect 48 0 22 0;
#X connect 49 0 1 0;
#X restore 564 470 pd numero4;
#X msg 538 158 5;
#X connect 0 0 6 0;
#X connect 1 0 5 0;
#X connect 2 0 0 0;
#X connect 2 0 12 0;
#X connect 3 0 17 0;
#X connect 4 0 1 0;
#X connect 5 0 10 0;
#X connect 6 0 10 0;
#X connect 7 0 10 1;
#X connect 8 0 9 0;
#X connect 9 0 13 0;
#X connect 9 0 14 0;
#X connect 9 0 15 0;
#X connect 9 0 16 0;
#X connect 10 0 7 0;
#X connect 10 0 8 0;
#X connect 11 0 0 1;
#X connect 12 0 1 0;
#X connect 17 0 11 0;
