#N canvas 587 0 1278 931 16;
#X obj 491 226 metro;
#X obj 394 255 bng 15 250 50 0 empty empty empty 17 7 0 10 #fcfcfc #000000 #000000;
#X obj 485 164 tgl 15 0 empty empty empty 17 7 0 10 #fcfcfc #000000 #000000 0 1;
#X obj 540 11 loadbang;
#X obj 271 232 loadbang;
#X obj 492 268 bng 15 250 50 0 empty empty empty 17 7 0 10 #fcfcfc #000000 #000000;
#X obj 521 368 + 1;
#X floatatom 444 378 5 0 0 0 - - - 0;
#X obj 444 327 int 1;
#X floatatom 538 192 5 0 0 0 - - - 0;
#X obj 394 214 sel 0;
#X obj 444 421 % 32;
#X msg 394 284 -1;
#X obj 739 783 spigot;
#X obj 794 749 tgl 15 0 empty empty empty 17 7 0 10 #fcfcfc #000000 #000000 0 1;
#X obj 538 50 vsl 15 128 0 127 0 0 empty empty empty 0 -9 0 10 #fcfcfc #000000 #000000 0 1;
#X floatatom 673 813 5 0 0 0 - - - 0;
#X floatatom 195 454 5 0 0 0 - - - 0;
#X obj 841 691 key;
#X obj 951 784 spigot;
#X obj 1006 750 tgl 15 0 empty empty empty 17 7 0 10 #fcfcfc #000000 #000000 0 1;
#X floatatom 885 814 5 0 0 0 - - - 0;
#X floatatom 380 457 5 0 0 0 - - - 0;
#X obj 1183 691 key;
#X obj 1237 779 spigot;
#X obj 1292 744 tgl 15 0 empty empty empty 17 7 0 10 #fcfcfc #000000 #000000 0 1;
#X floatatom 1170 809 5 0 0 0 - - - 0;
#X floatatom 572 458 5 0 0 0 - - - 0;
#X obj 1375 692 key;
#X obj 1523 785 spigot;
#X obj 1578 751 tgl 15 0 empty empty empty 17 7 0 10 #fcfcfc #000000 #000000 0 1;
#X floatatom 1458 810 5 0 0 0 - - - 0;
#X floatatom 767 458 5 0 0 0 - - - 0;
#X obj 1661 698 key;
#X obj 1796 794 spigot;
#X obj 1851 760 tgl 15 0 empty empty empty 17 7 0 10 #fcfcfc #000000 #000000 0 1;
#X floatatom 1734 822 5 0 0 0 - - - 0;
#X floatatom 952 462 5 0 0 0 - - - 0;
#X obj 1905 704 key;
#X obj 1864 732 sel 116;
#X obj 836 724 sel 113;
#X obj 317 508 s n2;
#X obj 955 662 receive n2;
#X obj 132 505 s n1;
#X obj 743 661 receive n1;
#X obj 509 509 s n3;
#X obj 1241 657 receive n3;
#X obj 704 509 s n4;
#X obj 1527 663 receive n4;
#X obj 889 513 s n5;
#X obj 1800 672 receive n5;
#X obj 1048 725 sel 119;
#X obj 1334 720 sel 101;
#X obj 1620 726 sel 114;
#N canvas 185 164 1364 676 bass_drum 0;
#X floatatom 149 123 5 0 0 0 - - - 0;
#X obj 149 41 inlet;
#X obj 122 306 makenote 60 500;
#X obj 149 87 % 4;
#X obj 128 183 sel 0;
#X obj 122 347 noteout 10;
#X msg 125 265 36;
#X msg 677 190 disconnect;
#X obj 514 278 netsend -u -b;
#X floatatom 495 360 5 0 0 0 - - - 0;
#X msg 489 124 connect localhost 11111;
#X obj 262 106 pack f;
#X obj 304 175 oscformat /B1;
#X connect 0 0 4 0;
#X connect 1 0 3 0;
#X connect 2 0 5 0;
#X connect 2 1 5 1;
#X connect 3 0 0 0;
#X connect 4 0 6 0;
#X connect 6 0 2 0;
#X connect 6 0 11 0;
#X connect 7 0 8 0;
#X connect 8 0 9 0;
#X connect 10 0 8 0;
#X connect 11 0 12 0;
#X connect 12 0 8 0;
#X restore 722 846 pd bass_drum;
#N canvas 362 69 1364 676 bass 0;
#X floatatom 74 208 5 0 0 0 - - - 0;
#X obj 72 459 makenote 60 300;
#X obj 216 2 inlet;
#X obj 213 55 moses;
#X obj 166 133 moses;
#X obj 311 78 moses;
#X floatatom 295 33 5 0 0 0 - - - 0;
#X floatatom 225 117 5 0 0 0 - - - 0;
#X floatatom 385 56 5 0 0 0 - - - 0;
#X floatatom 263 218 5 0 0 0 - - - 0;
#X obj 260 472 makenote 60 300;
#X floatatom 450 136 5 0 0 0 - - - 0;
#X obj 466 353 makenote 60 300;
#X floatatom 716 152 5 0 0 0 - - - 0;
#X obj 735 388 makenote 60 300;
#X msg 358 10 16;
#X msg 457 33 24;
#X msg 226 88 8;
#X obj 100 169 % 8;
#X obj 227 175 % 8;
#X obj 311 113 % 8;
#X obj 716 101 % 8;
#X obj 50 279 sel 0 2 4 6 7;
#X obj 222 272 sel 0 2 4 6 7;
#X obj 404 202 sel 0 2 4 6 7;
#X obj 675 222 sel 0 2 4 6 7;
#X obj 47 352 bng 15 250 50 0 empty empty empty 17 7 0 10 #fcfcfc #000000 #000000;
#X obj 92 352 bng 15 250 50 0 empty empty empty 17 7 0 10 #fcfcfc #000000 #000000;
#X obj 246 354 bng 15 250 50 0 empty empty empty 17 7 0 10 #fcfcfc #000000 #000000;
#X obj 290 355 bng 15 250 50 0 empty empty empty 17 7 0 10 #fcfcfc #000000 #000000;
#X obj 454 260 bng 15 250 50 0 empty empty empty 17 7 0 10 #fcfcfc #000000 #000000;
#X obj 700 279 bng 15 250 50 0 empty empty empty 17 7 0 10 #fcfcfc #000000 #000000;
#X obj 745 279 bng 15 250 50 0 empty empty empty 17 7 0 10 #fcfcfc #000000 #000000;
#X msg 29 399 42;
#X msg 92 398 37;
#X msg 264 421 38;
#X msg 322 417 42;
#X msg 466 305 45;
#X msg 735 349 40;
#X msg 784 345 44;
#X floatatom 974 166 5 0 0 0 - - - 0;
#X obj 1024 216 pgmout 4;
#X msg 928 88 33;
#X obj 764 436 noteout 4;
#X obj 494 387 noteout 4;
#X obj 269 520 noteout 4;
#X obj 81 508 noteout 4;
#X msg 1171 331 disconnect;
#X obj 1045 427 netsend -u -b;
#X floatatom 1071 505 5 0 0 0 - - - 0;
#X msg 1026 274 connect localhost 11111;
#X floatatom 619 621 5 0 0 0 - - - 0;
#X obj 709 509 pack f;
#X obj 820 487 oscformat /BA1;
#X connect 0 0 22 0;
#X connect 1 0 46 0;
#X connect 1 1 46 1;
#X connect 2 0 3 0;
#X connect 3 0 4 0;
#X connect 3 1 5 0;
#X connect 4 0 18 0;
#X connect 4 1 19 0;
#X connect 5 0 20 0;
#X connect 5 1 21 0;
#X connect 6 0 3 1;
#X connect 7 0 4 1;
#X connect 8 0 5 1;
#X connect 9 0 23 0;
#X connect 10 0 45 0;
#X connect 10 1 45 1;
#X connect 11 0 24 0;
#X connect 12 0 44 0;
#X connect 12 1 44 1;
#X connect 13 0 25 0;
#X connect 14 0 43 0;
#X connect 14 1 43 1;
#X connect 15 0 6 0;
#X connect 16 0 8 0;
#X connect 17 0 7 0;
#X connect 18 0 0 0;
#X connect 19 0 9 0;
#X connect 20 0 11 0;
#X connect 21 0 13 0;
#X connect 22 0 26 0;
#X connect 22 1 26 0;
#X connect 22 2 26 0;
#X connect 22 3 26 0;
#X connect 22 4 27 0;
#X connect 23 0 28 0;
#X connect 23 1 28 0;
#X connect 23 2 28 0;
#X connect 23 3 28 0;
#X connect 23 4 29 0;
#X connect 24 0 30 0;
#X connect 24 1 30 0;
#X connect 24 2 30 0;
#X connect 24 3 30 0;
#X connect 24 4 30 0;
#X connect 25 0 31 0;
#X connect 25 1 31 0;
#X connect 25 2 31 0;
#X connect 25 3 31 0;
#X connect 25 4 32 0;
#X connect 26 0 33 0;
#X connect 27 0 34 0;
#X connect 28 0 35 0;
#X connect 29 0 36 0;
#X connect 30 0 37 0;
#X connect 31 0 38 0;
#X connect 32 0 39 0;
#X connect 33 0 1 0;
#X connect 33 0 51 0;
#X connect 34 0 1 0;
#X connect 34 0 51 0;
#X connect 35 0 10 0;
#X connect 35 0 51 0;
#X connect 36 0 10 0;
#X connect 36 0 51 0;
#X connect 37 0 12 0;
#X connect 37 0 51 0;
#X connect 38 0 14 0;
#X connect 38 0 51 0;
#X connect 39 0 14 0;
#X connect 39 0 51 0;
#X connect 40 0 41 0;
#X connect 42 0 40 0;
#X connect 47 0 48 0;
#X connect 48 0 49 0;
#X connect 50 0 48 0;
#X connect 51 0 52 0;
#X connect 52 0 53 0;
#X connect 53 0 48 0;
#X restore 1506 850 pd bass;
#N canvas 264 58 1364 744 piano 0;
#X floatatom 6 98 5 0 0 0 - - - 0;
#X obj 232 -41 inlet;
#X obj 233 10 moses;
#X obj 186 88 moses;
#X obj 331 33 moses;
#X floatatom 315 -12 5 0 0 0 - - - 0;
#X floatatom 245 71 5 0 0 0 - - - 0;
#X floatatom 405 11 5 0 0 0 - - - 0;
#X floatatom 279 172 5 0 0 0 - - - 0;
#X floatatom 470 91 5 0 0 0 - - - 0;
#X floatatom 736 107 5 0 0 0 - - - 0;
#X obj 89 309 t b b b;
#X obj 277 322 t b b b;
#X obj 446 215 t b b b;
#X obj 709 258 t b b b;
#X msg 60 368 78;
#X msg 116 353 81;
#X msg 191 340 85;
#X msg 285 357 74;
#X msg 335 362 78;
#X msg 390 364 81;
#X msg 449 256 76;
#X msg 499 264 81;
#X msg 550 263 85;
#X msg 688 303 76;
#X msg 749 300 80;
#X msg 827 295 83;
#X msg 378 -36 16;
#X msg 247 37 8;
#X msg 477 -12 24;
#X obj 120 109 % 8;
#X obj 246 132 % 8;
#X obj 331 68 % 8;
#X obj 736 56 % 8;
#X obj 93 287 bng 15 250 50 0 empty empty empty 17 7 0 10 #fcfcfc #000000 #000000;
#X obj 262 298 bng 15 250 50 0 empty empty empty 17 7 0 10 #fcfcfc #000000 #000000;
#X obj 417 197 bng 15 250 50 0 empty empty empty 17 7 0 10 #fcfcfc #000000 #000000;
#X obj 682 238 bng 15 250 50 0 empty empty empty 17 7 0 10 #fcfcfc #000000 #000000;
#X obj 20 160 sel 0 3 6;
#X obj 265 235 sel 0 3 6;
#X obj 440 147 sel 0 3 6;
#X obj 695 160 sel 0 3 6;
#X floatatom 938 111 5 0 0 0 - - - 0;
#X obj 101 462 noteout 2;
#X obj 293 476 noteout 2;
#X obj 514 343 noteout 2;
#X obj 782 389 noteout 2;
#X obj 92 414 makenote 60 250;
#X obj 282 427 makenote 60 250;
#X obj 479 306 makenote 60 250;
#X obj 768 343 makenote 60 250;
#X obj 986 161 pgmout 2;
#X msg 892 33 109;
#X msg 1148 441 disconnect;
#X obj 985 529 netsend -u -b;
#X floatatom 966 611 5 0 0 0 - - - 0;
#X obj 1382 284 vsl 15 128 0 127 0 0 empty empty empty 0 -9 0 10 #fcfcfc #000000 #000000 0 1;
#X floatatom 1357 467 5 0 0 0 - - - 0;
#X floatatom 609 484 5 0 0 0 - - - 0;
#X obj 777 446 pack f;
#X msg 960 375 connect localhost 11111;
#X obj 798 481 oscformat /P1;
#X connect 0 0 38 0;
#X connect 1 0 2 0;
#X connect 2 0 3 0;
#X connect 2 1 4 0;
#X connect 3 0 30 0;
#X connect 3 1 31 0;
#X connect 4 0 32 0;
#X connect 4 1 33 0;
#X connect 5 0 2 1;
#X connect 6 0 3 1;
#X connect 7 0 4 1;
#X connect 8 0 39 0;
#X connect 9 0 40 0;
#X connect 10 0 41 0;
#X connect 11 0 15 0;
#X connect 11 1 16 0;
#X connect 11 2 17 0;
#X connect 12 0 18 0;
#X connect 12 1 19 0;
#X connect 12 2 20 0;
#X connect 13 0 21 0;
#X connect 13 1 22 0;
#X connect 13 2 23 0;
#X connect 14 0 24 0;
#X connect 14 1 25 0;
#X connect 14 2 26 0;
#X connect 15 0 47 0;
#X connect 15 0 58 0;
#X connect 16 0 47 0;
#X connect 17 0 47 0;
#X connect 18 0 48 0;
#X connect 18 0 58 0;
#X connect 19 0 48 0;
#X connect 20 0 48 0;
#X connect 21 0 49 0;
#X connect 21 0 58 0;
#X connect 22 0 49 0;
#X connect 23 0 49 0;
#X connect 24 0 50 0;
#X connect 25 0 50 0;
#X connect 25 0 58 0;
#X connect 26 0 50 0;
#X connect 27 0 5 0;
#X connect 28 0 6 0;
#X connect 29 0 7 0;
#X connect 30 0 0 0;
#X connect 31 0 8 0;
#X connect 32 0 9 0;
#X connect 33 0 10 0;
#X connect 34 0 11 0;
#X connect 35 0 12 0;
#X connect 36 0 13 0;
#X connect 37 0 14 0;
#X connect 38 0 34 0;
#X connect 38 1 34 0;
#X connect 38 2 34 0;
#X connect 39 0 35 0;
#X connect 39 1 35 0;
#X connect 39 2 35 0;
#X connect 40 0 36 0;
#X connect 40 1 36 0;
#X connect 40 2 36 0;
#X connect 41 0 37 0;
#X connect 41 1 37 0;
#X connect 41 2 37 0;
#X connect 42 0 51 0;
#X connect 47 0 43 0;
#X connect 47 1 43 1;
#X connect 48 0 44 0;
#X connect 48 1 44 1;
#X connect 49 0 45 0;
#X connect 49 1 45 1;
#X connect 50 0 46 0;
#X connect 50 1 46 1;
#X connect 52 0 42 0;
#X connect 53 0 54 0;
#X connect 54 0 55 0;
#X connect 56 0 57 0;
#X connect 58 0 59 0;
#X connect 59 0 61 0;
#X connect 60 0 54 0;
#X connect 61 0 54 0;
#X restore 934 849 pd piano;
#N canvas 276 136 1370 676 melody 0;
#X floatatom 53 257 5 0 0 0 - - - 0;
#X obj 230 59 inlet;
#X obj 192 104 moses;
#X obj 145 182 moses;
#X obj 290 127 moses;
#X floatatom 274 82 5 0 0 0 - - - 0;
#X floatatom 204 166 5 0 0 0 - - - 0;
#X floatatom 364 105 5 0 0 0 - - - 0;
#X floatatom 242 267 5 0 0 0 - - - 0;
#X floatatom 429 185 5 0 0 0 - - - 0;
#X floatatom 695 201 5 0 0 0 - - - 0;
#X msg 337 59 16;
#X msg 436 82 24;
#X msg 205 137 8;
#X obj 79 218 % 8;
#X obj 206 224 % 8;
#X obj 290 162 % 8;
#X obj 695 150 % 8;
#X obj 26 401 bng 15 250 50 0 empty empty empty 17 7 0 10 #fcfcfc #000000 #000000;
#X obj 71 401 bng 15 250 50 0 empty empty empty 17 7 0 10 #fcfcfc #000000 #000000;
#X obj 225 403 bng 15 250 50 0 empty empty empty 17 7 0 10 #fcfcfc #000000 #000000;
#X obj 269 404 bng 15 250 50 0 empty empty empty 17 7 0 10 #fcfcfc #000000 #000000;
#X obj 433 309 bng 15 250 50 0 empty empty empty 17 7 0 10 #fcfcfc #000000 #000000;
#X obj 679 328 bng 15 250 50 0 empty empty empty 17 7 0 10 #fcfcfc #000000 #000000;
#X obj 29 328 sel 0 4 6;
#X obj 126 402 bng 15 250 50 0 empty empty empty 17 7 0 10 #fcfcfc #000000 #000000;
#X msg 8 448 81;
#X msg 71 447 80;
#X msg 129 452 81;
#X obj 201 320 sel 0 4;
#X msg 243 470 83;
#X msg 301 466 83;
#X msg 445 353 81;
#X obj 383 251 sel 0;
#X obj 654 271 sel 0;
#X msg 714 398 80;
#X floatatom 958 131 5 0 0 0 - - - 0;
#X obj 1006 181 pgmout 5;
#X obj 60 556 noteout 5;
#X obj 249 569 noteout 5;
#X obj 473 437 noteout 5;
#X obj 737 483 noteout 5;
#X obj 52 509 makenote 60 400;
#X obj 241 521 makenote 60 500;
#X obj 446 402 makenote 60 700;
#X obj 714 437 makenote 60 700;
#X msg 912 51 45;
#X msg 1142 373 disconnect;
#X obj 979 461 netsend -u -b;
#X floatatom 960 543 5 0 0 0 - - - 0;
#X msg 953 307 connect localhost 11111;
#X floatatom 548 606 5 0 0 0 - - - 0;
#X obj 648 555 pack f;
#X obj 684 586 oscformat /M1;
#X connect 0 0 24 0;
#X connect 1 0 2 0;
#X connect 2 0 3 0;
#X connect 2 1 4 0;
#X connect 3 0 14 0;
#X connect 3 1 15 0;
#X connect 4 0 16 0;
#X connect 4 1 17 0;
#X connect 5 0 2 1;
#X connect 6 0 3 1;
#X connect 7 0 4 1;
#X connect 8 0 29 0;
#X connect 9 0 33 0;
#X connect 10 0 34 0;
#X connect 11 0 5 0;
#X connect 12 0 7 0;
#X connect 13 0 6 0;
#X connect 14 0 0 0;
#X connect 15 0 8 0;
#X connect 16 0 9 0;
#X connect 17 0 10 0;
#X connect 18 0 26 0;
#X connect 19 0 27 0;
#X connect 20 0 30 0;
#X connect 21 0 31 0;
#X connect 22 0 32 0;
#X connect 23 0 35 0;
#X connect 24 0 18 0;
#X connect 24 1 19 0;
#X connect 24 2 25 0;
#X connect 25 0 28 0;
#X connect 26 0 42 0;
#X connect 26 0 51 0;
#X connect 27 0 42 0;
#X connect 27 0 51 0;
#X connect 28 0 42 0;
#X connect 28 0 51 0;
#X connect 29 0 20 0;
#X connect 29 1 21 0;
#X connect 30 0 43 0;
#X connect 30 0 51 0;
#X connect 31 0 43 0;
#X connect 31 0 51 0;
#X connect 32 0 44 0;
#X connect 32 0 51 0;
#X connect 33 0 22 0;
#X connect 34 0 23 0;
#X connect 35 0 45 0;
#X connect 35 0 51 0;
#X connect 36 0 37 0;
#X connect 42 0 38 0;
#X connect 42 1 38 1;
#X connect 43 0 39 0;
#X connect 43 1 39 1;
#X connect 44 0 40 0;
#X connect 44 1 40 1;
#X connect 45 0 41 0;
#X connect 45 1 41 1;
#X connect 46 0 36 0;
#X connect 47 0 48 0;
#X connect 48 0 49 0;
#X connect 50 0 48 0;
#X connect 51 0 52 0;
#X connect 52 0 53 0;
#X connect 53 0 48 0;
#X restore 1779 859 pd melody;
#N canvas 593 49 1350 675 hi_hat 0;
#X floatatom 4 126 5 0 0 0 - - - 0;
#X floatatom -78 325 5 0 0 0 - - - 0;
#X obj -22 280 t b b;
#X obj 15 372 makenote 60 300;
#X obj 8 39 inlet;
#X obj 9 89 % 2;
#X floatatom 109 330 5 0 0 0 - - - 0;
#X obj 165 284 t b b;
#X obj 202 376 makenote 60 300;
#X text -98 362 Hi-hat;
#X text 386 380 Snare drum;
#X obj -19 243 bng 15 250 50 0 empty empty empty 17 7 0 10 #fcfcfc #000000 #000000;
#X obj -25 195 sel 0 1;
#X obj 109 254 bng 15 250 50 0 empty empty empty 17 7 0 10 #fcfcfc #000000 #000000;
#X obj 14 417 noteout 10;
#X obj 202 421 noteout 10;
#X msg 15 323 42;
#X msg 193 329 39;
#X msg 818 304 disconnect;
#X obj 655 392 netsend -u -b;
#X floatatom 636 474 5 0 0 0 - - - 0;
#X msg 630 238 connect localhost 11111;
#X floatatom 308 235 5 0 0 0 - - - 0;
#X obj 412 230 pack f;
#X obj 407 275 oscformat /H1;
#X connect 0 0 12 0;
#X connect 2 0 16 0;
#X connect 2 0 1 0;
#X connect 3 0 14 0;
#X connect 3 1 14 1;
#X connect 4 0 5 0;
#X connect 5 0 0 0;
#X connect 7 0 17 0;
#X connect 7 0 6 0;
#X connect 8 0 15 0;
#X connect 8 1 15 1;
#X connect 11 0 2 0;
#X connect 12 0 11 0;
#X connect 12 1 11 0;
#X connect 13 0 7 0;
#X connect 16 0 3 0;
#X connect 16 0 22 0;
#X connect 17 0 8 0;
#X connect 18 0 19 0;
#X connect 19 0 20 0;
#X connect 21 0 19 0;
#X connect 22 0 23 0;
#X connect 23 0 24 0;
#X connect 24 0 19 0;
#X restore 1223 844 pd hi_hat;
#X obj 1094 258 netreceive -u -b;
#X msg 1098 212 listen 12001;
#X obj 1115 324 oscparse;
#X obj 1041 344 bng 24 250 50 0 empty empty empty 0 -12 0 16 #fcfcfc #000000 #000000;
#X obj 1111 365 list trim;
#X symbolatom 1068 455 10 0 0 0 - - - 0;
#X floatatom 1221 473 5 0 0 0 - - - 0;
#X obj 1108 404 unpack s f;
#X obj 1206 549 sel 10 20 30 40;
#X obj 1054 546 sel 0;
#X floatatom 1060 873 5 0 0 0 - - - 0;
#X obj 1056 584 bng 15 250 50 0 empty empty empty 17 7 0 10 #fcfcfc #000000 #000000;
#X msg 814 756 1;
#X floatatom 814 788 5 0 0 0 - - - 0;
#X msg 1097 811 1;
#X msg 1045 811 0;
#X obj 1097 788 bng 15 250 50 0 empty empty empty 17 7 0 10 #fcfcfc #000000 #000000;
#X floatatom 1353 857 5 0 0 0 - - - 0;
#X msg 1390 795 1;
#X msg 1338 795 0;
#X obj 1390 772 bng 15 250 50 0 empty empty empty 17 7 0 10 #fcfcfc #000000 #000000;
#X floatatom 1635 855 5 0 0 0 - - - 0;
#X msg 1666 802 1;
#X msg 1614 802 0;
#X obj 1666 779 bng 15 250 50 0 empty empty empty 17 7 0 10 #fcfcfc #000000 #000000;
#X floatatom 1927 866 5 0 0 0 - - - 0;
#X msg 1964 804 1;
#X msg 1912 804 0;
#X obj 1964 781 bng 15 250 50 0 empty empty empty 17 7 0 10 #fcfcfc #000000 #000000;
#X msg 634 139 180;
#X connect 0 0 5 0;
#X connect 1 0 12 0;
#X connect 2 0 0 0;
#X connect 2 0 10 0;
#X connect 3 0 15 0;
#X connect 4 0 1 0;
#X connect 5 0 8 0;
#X connect 6 0 8 1;
#X connect 7 0 11 0;
#X connect 8 0 6 0;
#X connect 8 0 7 0;
#X connect 9 0 0 1;
#X connect 10 0 1 0;
#X connect 11 0 17 0;
#X connect 11 0 22 0;
#X connect 11 0 27 0;
#X connect 11 0 32 0;
#X connect 11 0 37 0;
#X connect 12 0 8 0;
#X connect 13 0 16 0;
#X connect 13 0 54 0;
#X connect 14 0 13 1;
#X connect 17 0 43 0;
#X connect 18 0 40 0;
#X connect 19 0 21 0;
#X connect 19 0 56 0;
#X connect 20 0 19 1;
#X connect 22 0 41 0;
#X connect 23 0 51 0;
#X connect 24 0 26 0;
#X connect 24 0 58 0;
#X connect 25 0 24 1;
#X connect 27 0 45 0;
#X connect 28 0 52 0;
#X connect 29 0 31 0;
#X connect 29 0 55 0;
#X connect 30 0 29 1;
#X connect 32 0 47 0;
#X connect 33 0 53 0;
#X connect 34 0 36 0;
#X connect 34 0 57 0;
#X connect 35 0 34 1;
#X connect 37 0 49 0;
#X connect 38 0 39 0;
#X connect 39 0 35 0;
#X connect 40 0 14 0;
#X connect 42 0 19 0;
#X connect 44 0 13 0;
#X connect 46 0 24 0;
#X connect 48 0 29 0;
#X connect 50 0 34 0;
#X connect 51 0 20 0;
#X connect 52 0 25 0;
#X connect 53 0 30 0;
#X connect 59 0 61 0;
#X connect 59 0 62 0;
#X connect 60 0 59 0;
#X connect 61 0 63 0;
#X connect 63 0 66 0;
#X connect 65 0 67 0;
#X connect 65 0 68 0;
#X connect 66 0 64 0;
#X connect 66 1 65 0;
#X connect 67 0 75 0;
#X connect 67 1 79 0;
#X connect 67 2 83 0;
#X connect 67 3 87 0;
#X connect 68 0 70 0;
#X connect 69 0 19 1;
#X connect 70 0 71 0;
#X connect 70 0 74 0;
#X connect 70 0 78 0;
#X connect 70 0 82 0;
#X connect 70 0 86 0;
#X connect 71 0 72 0;
#X connect 72 0 13 1;
#X connect 73 0 69 0;
#X connect 74 0 69 0;
#X connect 75 0 73 0;
#X connect 76 0 24 1;
#X connect 77 0 76 0;
#X connect 78 0 76 0;
#X connect 79 0 77 0;
#X connect 80 0 29 1;
#X connect 81 0 80 0;
#X connect 82 0 80 0;
#X connect 83 0 81 0;
#X connect 84 0 34 1;
#X connect 85 0 84 0;
#X connect 86 0 84 0;
#X connect 87 0 85 0;
#X connect 88 0 9 0;
