#N canvas 7 41 400 647 16;
#X obj 491 226 metro;
#X obj 394 255 bng 15 250 50 0 empty empty empty 17 7 0 10 -262144
-1 -1;
#X obj 491 198 tgl 15 0 empty empty empty 17 7 0 10 -262144 -1 -1 0
1;
#X obj 538 121 loadbang;
#X obj 271 232 loadbang;
#X obj 491 266 bng 15 250 50 0 empty empty empty 17 7 0 10 -262144
-1 -1;
#X obj 521 368 + 1;
#X floatatom 444 378 5 0 0 0 - - -;
#X obj 444 327 int 1;
#X floatatom 538 192 5 0 0 0 - - -;
#X obj 394 214 sel 0;
#N canvas 1913 1009 1920 944 numero1 0;
#X floatatom 149 149 5 0 0 0 - - -;
#X obj 149 182 == 0;
#X floatatom 45 282 5 0 0 0 - - -;
#X obj 122 259 t b b;
#X obj 336 18 key;
#X obj 247 41 sel 113;
#X obj 224 64 tgl 15 0 empty empty empty 17 7 0 10 -262144 -1 -1 0
127;
#X obj 122 224 spigot;
#X obj 149 79 spigot;
#X obj 149 41 inlet;
#X obj 122 332 makenote 60 500;
#X obj 122 373 noteout;
#X msg 122 298 42;
#X obj 149 113 % 4;
#X connect 0 0 1 0;
#X connect 1 0 7 0;
#X connect 1 0 7 1;
#X connect 3 0 12 0;
#X connect 3 0 2 0;
#X connect 4 0 5 0;
#X connect 5 0 6 0;
#X connect 6 0 8 1;
#X connect 7 0 3 0;
#X connect 8 0 13 0;
#X connect 9 0 8 0;
#X connect 10 0 11 0;
#X connect 10 1 11 1;
#X connect 12 0 10 0;
#X connect 13 0 0 0;
#X restore 217 469 pd numero1;
#N canvas 408 43 445 676 numero2 1;
#X obj 235 633 noteout;
#X floatatom 140 269 5 0 0 0 - - -;
#X obj 514 60 key;
#X obj 461 121 tgl 15 0 empty empty empty 17 7 0 10 -262144 -1 -1 127
127;
#X obj 367 136 spigot;
#X obj 367 81 inlet;
#X obj 514 98 sel 87;
#X obj 367 181 moses;
#X obj 320 259 moses;
#X obj 465 204 moses;
#X floatatom 449 159 5 0 0 0 - - -;
#X floatatom 379 242 5 0 0 0 - - -;
#X floatatom 539 182 5 0 0 0 - - -;
#X obj 423 646 noteout;
#X floatatom 413 343 5 0 0 0 - - -;
#X obj 648 514 noteout;
#X floatatom 604 262 5 0 0 0 - - -;
#X obj 912 560 noteout;
#X floatatom 870 278 5 0 0 0 - - -;
#X obj 223 480 t b b b;
#X obj 411 493 t b b b;
#X obj 580 386 t b b b;
#X obj 843 429 t b b b;
#X msg 230 534 78;
#X msg 284 529 81;
#X msg 341 529 85;
#X msg 418 547 74;
#X msg 474 545 78;
#X msg 528 545 81;
#X msg 586 438 76;
#X msg 633 435 81;
#X msg 684 434 85;
#X msg 822 474 76;
#X msg 883 471 80;
#X msg 961 466 83;
#X msg 512 136 16;
#X msg 381 208 8;
#X msg 611 159 24;
#X obj 254 280 % 8;
#X obj 380 303 % 8;
#X obj 465 239 % 8;
#X obj 870 227 % 8;
#X obj 227 458 bng 15 250 50 0 empty empty empty 17 7 0 10 -262144
-1 -1;
#X obj 396 469 bng 15 250 50 0 empty empty empty 17 7 0 10 -262144
-1 -1;
#X obj 551 368 bng 15 250 50 0 empty empty empty 17 7 0 10 -262144
-1 -1;
#X obj 816 409 bng 15 250 50 0 empty empty empty 17 7 0 10 -262144
-1 -1;
#X obj 226 585 makenote 60 2500;
#X obj 416 598 makenote 60 2500;
#X obj 620 479 makenote 60 2500;
#X obj 902 514 makenote 60 2500;
#X obj 154 331 sel 0 3 6;
#X obj 399 406 sel 0 3 6;
#X obj 574 318 sel 0 3 6;
#X obj 829 331 sel 0 3 6;
#X connect 1 0 50 0;
#X connect 2 0 6 0;
#X connect 3 0 4 1;
#X connect 4 0 7 0;
#X connect 5 0 4 0;
#X connect 6 0 3 0;
#X connect 7 0 8 0;
#X connect 7 1 9 0;
#X connect 8 0 38 0;
#X connect 8 1 39 0;
#X connect 9 0 40 0;
#X connect 9 1 41 0;
#X connect 10 0 7 1;
#X connect 11 0 8 1;
#X connect 12 0 9 1;
#X connect 14 0 51 0;
#X connect 16 0 52 0;
#X connect 18 0 53 0;
#X connect 19 0 23 0;
#X connect 19 1 24 0;
#X connect 19 2 25 0;
#X connect 20 0 26 0;
#X connect 20 1 27 0;
#X connect 20 2 28 0;
#X connect 21 0 29 0;
#X connect 21 1 30 0;
#X connect 21 2 31 0;
#X connect 22 0 32 0;
#X connect 22 1 33 0;
#X connect 22 2 34 0;
#X connect 23 0 46 0;
#X connect 24 0 46 0;
#X connect 25 0 46 0;
#X connect 26 0 47 0;
#X connect 27 0 47 0;
#X connect 28 0 47 0;
#X connect 29 0 48 0;
#X connect 30 0 48 0;
#X connect 31 0 48 0;
#X connect 32 0 49 0;
#X connect 33 0 49 0;
#X connect 34 0 49 0;
#X connect 35 0 10 0;
#X connect 36 0 11 0;
#X connect 37 0 12 0;
#X connect 38 0 1 0;
#X connect 39 0 14 0;
#X connect 40 0 16 0;
#X connect 41 0 18 0;
#X connect 42 0 19 0;
#X connect 43 0 20 0;
#X connect 44 0 21 0;
#X connect 45 0 22 0;
#X connect 46 0 0 0;
#X connect 46 1 0 1;
#X connect 47 0 13 0;
#X connect 47 1 13 1;
#X connect 48 0 15 0;
#X connect 48 1 15 1;
#X connect 49 0 17 0;
#X connect 49 1 17 1;
#X connect 50 0 42 0;
#X connect 50 1 42 0;
#X connect 50 2 42 0;
#X connect 51 0 43 0;
#X connect 51 1 43 0;
#X connect 51 2 43 0;
#X connect 52 0 44 0;
#X connect 52 1 44 0;
#X connect 52 2 44 0;
#X connect 53 0 45 0;
#X connect 53 1 45 0;
#X connect 53 2 45 0;
#X restore 334 469 pd numero2;
#N canvas 846 44 357 647 numero3 1;
#X obj 297 531 noteout;
#X floatatom 286 240 5 0 0 0 - - -;
#X floatatom 204 439 5 0 0 0 - - -;
#X obj 260 394 t b b;
#X obj 417 74 key;
#X obj 377 135 tgl 15 0 empty empty empty 17 7 0 10 -262144 -1 -1 127
127;
#X obj 291 151 spigot;
#X obj 297 486 makenote 60 300;
#X obj 291 106 inlet;
#X obj 417 113 sel 69;
#X obj 291 203 % 2;
#X obj 484 535 noteout;
#X floatatom 391 443 5 0 0 0 - - -;
#X obj 447 398 t b b;
#X obj 484 490 makenote 60 300;
#X text 184 476 Hi-hat;
#X text 668 494 Snare drum;
#X msg 474 444 80;
#X obj 263 357 bng 15 250 50 0 empty empty empty 17 7 0 10 -262144
-1 -1;
#X obj 257 309 sel 0 1;
#X obj 391 368 bng 15 250 50 0 empty empty empty 17 7 0 10 -262144
-1 -1;
#X msg 297 437 90;
#X connect 1 0 19 0;
#X connect 3 0 21 0;
#X connect 3 0 2 0;
#X connect 4 0 9 0;
#X connect 5 0 6 1;
#X connect 6 0 10 0;
#X connect 7 0 0 0;
#X connect 7 1 0 1;
#X connect 8 0 6 0;
#X connect 9 0 5 0;
#X connect 10 0 1 0;
#X connect 13 0 17 0;
#X connect 13 0 12 0;
#X connect 14 0 11 0;
#X connect 14 1 11 1;
#X connect 17 0 14 0;
#X connect 18 0 3 0;
#X connect 19 0 18 0;
#X connect 19 1 18 0;
#X connect 19 1 20 0;
#X connect 20 0 13 0;
#X connect 21 0 7 0;
#X restore 450 469 pd numero3;
#N canvas 1203 53 343 647 numero4 1;
#X obj 245 643 noteout;
#X floatatom 238 344 5 0 0 0 - - -;
#X obj 524 70 key;
#X obj 470 131 tgl 15 0 empty empty empty 17 7 0 10 -262144 -1 -1 127
127;
#X obj 377 146 spigot;
#X obj 236 595 makenote 60 300;
#X obj 377 91 inlet;
#X obj 524 108 sel 87;
#X obj 377 191 moses;
#X obj 330 269 moses;
#X obj 475 214 moses;
#X floatatom 459 169 5 0 0 0 - - -;
#X floatatom 389 253 5 0 0 0 - - -;
#X floatatom 549 192 5 0 0 0 - - -;
#X obj 433 656 noteout;
#X floatatom 427 354 5 0 0 0 - - -;
#X obj 424 608 makenote 60 300;
#X obj 658 524 noteout;
#X floatatom 614 272 5 0 0 0 - - -;
#X obj 630 489 makenote 60 300;
#X obj 922 570 noteout;
#X floatatom 880 288 5 0 0 0 - - -;
#X obj 899 524 makenote 60 300;
#X msg 522 146 16;
#X msg 621 169 24;
#X msg 390 224 8;
#X obj 264 305 % 8;
#X obj 391 311 % 8;
#X obj 475 249 % 8;
#X obj 880 237 % 8;
#X obj 214 415 sel 0 2 4 6 7;
#X obj 386 408 sel 0 2 4 6 7;
#X obj 568 338 sel 0 2 4 6 7;
#X obj 839 358 sel 0 2 4 6 7;
#X obj 211 488 bng 15 250 50 0 empty empty empty 17 7 0 10 -262144
-1 -1;
#X obj 256 488 bng 15 250 50 0 empty empty empty 17 7 0 10 -262144
-1 -1;
#X obj 410 490 bng 15 250 50 0 empty empty empty 17 7 0 10 -262144
-1 -1;
#X obj 454 491 bng 15 250 50 0 empty empty empty 17 7 0 10 -262144
-1 -1;
#X obj 618 396 bng 15 250 50 0 empty empty empty 17 7 0 10 -262144
-1 -1;
#X obj 864 415 bng 15 250 50 0 empty empty empty 17 7 0 10 -262144
-1 -1;
#X obj 909 415 bng 15 250 50 0 empty empty empty 17 7 0 10 -262144
-1 -1;
#X msg 193 535 42;
#X msg 256 534 37;
#X msg 428 557 38;
#X msg 486 553 42;
#X msg 630 441 45;
#X msg 899 485 40;
#X msg 948 481 44;
#X connect 1 0 30 0;
#X connect 2 0 7 0;
#X connect 3 0 4 1;
#X connect 4 0 8 0;
#X connect 5 0 0 0;
#X connect 5 1 0 1;
#X connect 6 0 4 0;
#X connect 7 0 3 0;
#X connect 8 0 9 0;
#X connect 8 1 10 0;
#X connect 9 0 26 0;
#X connect 9 1 27 0;
#X connect 10 0 28 0;
#X connect 10 1 29 0;
#X connect 11 0 8 1;
#X connect 12 0 9 1;
#X connect 13 0 10 1;
#X connect 15 0 31 0;
#X connect 16 0 14 0;
#X connect 16 1 14 1;
#X connect 18 0 32 0;
#X connect 19 0 17 0;
#X connect 19 1 17 1;
#X connect 21 0 33 0;
#X connect 22 0 20 0;
#X connect 22 1 20 1;
#X connect 23 0 11 0;
#X connect 24 0 13 0;
#X connect 25 0 12 0;
#X connect 26 0 1 0;
#X connect 27 0 15 0;
#X connect 28 0 18 0;
#X connect 29 0 21 0;
#X connect 30 0 34 0;
#X connect 30 1 34 0;
#X connect 30 2 34 0;
#X connect 30 3 34 0;
#X connect 30 4 35 0;
#X connect 31 0 36 0;
#X connect 31 1 36 0;
#X connect 31 2 36 0;
#X connect 31 3 36 0;
#X connect 31 4 37 0;
#X connect 32 0 38 0;
#X connect 32 1 38 0;
#X connect 32 2 38 0;
#X connect 32 3 38 0;
#X connect 32 4 38 0;
#X connect 33 0 39 0;
#X connect 33 1 39 0;
#X connect 33 2 39 0;
#X connect 33 3 39 0;
#X connect 33 4 40 0;
#X connect 34 0 41 0;
#X connect 35 0 42 0;
#X connect 36 0 43 0;
#X connect 37 0 44 0;
#X connect 38 0 45 0;
#X connect 39 0 46 0;
#X connect 40 0 47 0;
#X connect 41 0 5 0;
#X connect 42 0 5 0;
#X connect 43 0 16 0;
#X connect 44 0 16 0;
#X connect 45 0 19 0;
#X connect 46 0 22 0;
#X connect 47 0 22 0;
#X restore 564 470 pd numero4;
#X obj 444 421 % 32;
#X msg 394 284 -1;
#X msg 539 158 200;
#N canvas 1544 31 326 709 numero5 1;
#X obj 255 653 noteout;
#X floatatom 248 354 5 0 0 0 - - -;
#X obj 534 80 key;
#X obj 480 141 tgl 15 0 empty empty empty 17 7 0 10 -262144 -1 -1 127
127;
#X obj 387 156 spigot;
#X obj 246 605 makenote 60 300;
#X obj 387 101 inlet;
#X obj 534 118 sel 87;
#X obj 387 201 moses;
#X obj 340 279 moses;
#X obj 485 224 moses;
#X floatatom 469 179 5 0 0 0 - - -;
#X floatatom 399 263 5 0 0 0 - - -;
#X floatatom 559 202 5 0 0 0 - - -;
#X obj 443 666 noteout;
#X floatatom 437 364 5 0 0 0 - - -;
#X obj 434 618 makenote 60 300;
#X obj 668 534 noteout;
#X floatatom 624 282 5 0 0 0 - - -;
#X obj 640 499 makenote 60 300;
#X obj 932 580 noteout;
#X floatatom 890 298 5 0 0 0 - - -;
#X obj 909 534 makenote 60 300;
#X msg 532 156 16;
#X msg 631 179 24;
#X msg 400 234 8;
#X obj 274 315 % 8;
#X obj 401 321 % 8;
#X obj 485 259 % 8;
#X obj 890 247 % 8;
#X obj 221 498 bng 15 250 50 0 empty empty empty 17 7 0 10 -262144
-1 -1;
#X obj 266 498 bng 15 250 50 0 empty empty empty 17 7 0 10 -262144
-1 -1;
#X obj 420 500 bng 15 250 50 0 empty empty empty 17 7 0 10 -262144
-1 -1;
#X obj 464 501 bng 15 250 50 0 empty empty empty 17 7 0 10 -262144
-1 -1;
#X obj 628 406 bng 15 250 50 0 empty empty empty 17 7 0 10 -262144
-1 -1;
#X obj 874 425 bng 15 250 50 0 empty empty empty 17 7 0 10 -262144
-1 -1;
#X obj 224 425 sel 0 4 6;
#X obj 321 499 bng 15 250 50 0 empty empty empty 17 7 0 10 -262144
-1 -1;
#X msg 203 545 81;
#X msg 266 544 80;
#X msg 324 549 81;
#X obj 396 417 sel 0 4;
#X msg 438 567 83;
#X msg 496 563 83;
#X msg 640 450 81;
#X obj 578 348 sel 0;
#X obj 849 368 sel 0;
#X msg 909 495 80;
#X connect 1 0 36 0;
#X connect 2 0 7 0;
#X connect 3 0 4 1;
#X connect 4 0 8 0;
#X connect 5 0 0 0;
#X connect 5 1 0 1;
#X connect 6 0 4 0;
#X connect 7 0 3 0;
#X connect 8 0 9 0;
#X connect 8 1 10 0;
#X connect 9 0 26 0;
#X connect 9 1 27 0;
#X connect 10 0 28 0;
#X connect 10 1 29 0;
#X connect 11 0 8 1;
#X connect 12 0 9 1;
#X connect 13 0 10 1;
#X connect 15 0 41 0;
#X connect 16 0 14 0;
#X connect 16 1 14 1;
#X connect 18 0 45 0;
#X connect 19 0 17 0;
#X connect 19 1 17 1;
#X connect 21 0 46 0;
#X connect 22 0 20 0;
#X connect 22 1 20 1;
#X connect 23 0 11 0;
#X connect 24 0 13 0;
#X connect 25 0 12 0;
#X connect 26 0 1 0;
#X connect 27 0 15 0;
#X connect 28 0 18 0;
#X connect 29 0 21 0;
#X connect 30 0 38 0;
#X connect 31 0 39 0;
#X connect 32 0 42 0;
#X connect 33 0 43 0;
#X connect 34 0 44 0;
#X connect 35 0 47 0;
#X connect 36 0 30 0;
#X connect 36 1 31 0;
#X connect 36 2 37 0;
#X connect 37 0 40 0;
#X connect 38 0 5 0;
#X connect 39 0 5 0;
#X connect 40 0 5 0;
#X connect 41 0 32 0;
#X connect 41 1 33 0;
#X connect 42 0 16 0;
#X connect 43 0 16 0;
#X connect 44 0 19 0;
#X connect 45 0 34 0;
#X connect 46 0 35 0;
#X connect 47 0 22 0;
#X restore 719 475 pd numero5;
#X connect 0 0 5 0;
#X connect 1 0 16 0;
#X connect 2 0 0 0;
#X connect 2 0 10 0;
#X connect 3 0 17 0;
#X connect 4 0 1 0;
#X connect 5 0 8 0;
#X connect 6 0 8 1;
#X connect 7 0 15 0;
#X connect 8 0 6 0;
#X connect 8 0 7 0;
#X connect 9 0 0 1;
#X connect 10 0 1 0;
#X connect 15 0 11 0;
#X connect 15 0 12 0;
#X connect 15 0 13 0;
#X connect 15 0 14 0;
#X connect 15 0 18 0;
#X connect 16 0 8 0;
#X connect 17 0 9 0;
